<svg width="24" height="24" viewBox="0 0 24 24" fill="none" xmlns="http://www.w3.org/2000/svg">
<g clip-path="url(#clip0)">
<path d="M23.5001 6.50708C23.3642 6.02231 23.0995 5.58342 22.7341 5.23708C22.3584 4.88008 21.8979 4.62471 21.3961 4.49508C19.5181 4.00008 11.9941 4.00008 11.9941 4.00008C8.85746 3.96439 5.72156 4.12135 2.60413 4.47008C2.10232 4.60929 1.64269 4.87036 1.26613 5.23008C0.896129 5.58608 0.628129 6.02508 0.488129 6.50608C0.151822 8.31782 -0.0115791 10.1574 0.000128902 12.0001C-0.0118711 13.8411 0.151129 15.6801 0.488129 17.4941C0.625129 17.9731 0.892129 18.4101 1.26313 18.7631C1.63413 19.1161 2.09613 19.3711 2.60413 19.5061C4.50713 20.0001 11.9941 20.0001 11.9941 20.0001C15.1348 20.0358 18.2747 19.8789 21.3961 19.5301C21.8979 19.4004 22.3584 19.1451 22.7341 18.7881C23.1041 18.4351 23.3671 17.9961 23.4991 17.5181C23.8442 15.707 24.012 13.8667 24.0001 12.0231C24.0261 10.1717 23.8585 8.32264 23.5001 6.50608V6.50708ZM9.60213 15.4241V8.57708L15.8621 12.0011L9.60213 15.4241Z" fill="#868686"/>
</g>
<defs>
<clipPath id="clip0">
<rect width="24" height="24" fill="white"/>
</clipPath>
</defs>
</svg>
